<svg width="406" height="406" viewBox="0 0 406 406" fill="none" xmlns="http://www.w3.org/2000/svg">
<circle cx="203" cy="203" r="203" fill="#D9D9D9"/>
<path d="M131.975 259C127.642 259 124.204 258.208 121.662 256.625C119.121 255.042 117.225 252.854 115.975 250.062C114.725 247.271 113.892 244 113.475 240.25C113.1 236.5 112.912 232.479 112.912 228.188V187.438C112.912 180.229 114.183 174.396 116.725 169.938C119.308 165.479 123.662 163.25 129.787 163.25C134.329 163.25 137.808 164.229 140.225 166.188C142.683 168.104 144.579 170.792 145.912 174.25V148H168.662V258H145.912V248.062C144.662 251.438 142.996 254.104 140.912 256.062C138.871 258.021 135.892 259 131.975 259ZM140.537 241.5C142.662 241.5 144.079 240.646 144.787 238.938C145.537 237.229 145.912 234.167 145.912 229.75V190.312C145.912 188.104 145.579 185.938 144.912 183.812C144.287 181.646 142.871 180.562 140.662 180.562C138.246 180.562 136.725 181.583 136.1 183.625C135.475 185.667 135.162 187.896 135.162 190.312V229.75C135.162 237.583 136.954 241.5 140.537 241.5ZM187.95 259C182.742 259 178.762 257.792 176.012 255.375C173.304 252.958 171.45 249.646 170.45 245.438C169.45 241.229 168.95 236.458 168.95 231.125C168.95 225.417 169.512 220.75 170.637 217.125C171.762 213.458 173.679 210.458 176.387 208.125C179.137 205.792 182.908 203.812 187.7 202.188L201.575 197.438V187.812C201.575 182.771 199.929 180.25 196.637 180.25C193.637 180.25 192.137 182.292 192.137 186.375V192H170.387C170.346 191.667 170.325 191.25 170.325 190.75C170.325 190.208 170.325 189.604 170.325 188.938C170.325 179.604 172.512 173 176.887 169.125C181.304 165.208 188.283 163.25 197.825 163.25C202.825 163.25 207.304 164.146 211.262 165.938C215.221 167.688 218.346 170.292 220.637 173.75C222.971 177.208 224.137 181.479 224.137 186.562V258H201.887V246.875C200.804 250.792 199.012 253.792 196.512 255.875C194.012 257.958 191.158 259 187.95 259ZM196.762 241.625C198.596 241.625 199.846 240.854 200.512 239.312C201.179 237.771 201.512 236.104 201.512 234.312V208.188C198.429 209.438 196.033 211.021 194.325 212.938C192.617 214.812 191.762 217.583 191.762 221.25V233.312C191.762 238.854 193.429 241.625 196.762 241.625ZM226.362 273.625V164.25H249.112V174.25C250.487 170.792 252.383 168.104 254.8 166.188C257.258 164.229 260.758 163.25 265.3 163.25C271.425 163.25 275.737 165.479 278.237 169.938C280.779 174.396 282.05 180.229 282.05 187.438V233.562C282.05 238.354 281.362 242.688 279.987 246.562C278.654 250.396 276.529 253.438 273.612 255.688C270.737 257.896 266.967 259 262.3 259C256.217 259 251.821 255.333 249.112 248V273.625H226.362ZM254.425 241.562C256.758 241.562 258.154 240.396 258.612 238.062C259.112 235.729 259.362 232.854 259.362 229.438V192.812C259.362 189.354 259.112 186.479 258.612 184.188C258.154 181.854 256.758 180.688 254.425 180.688C252.008 180.688 250.508 181.875 249.925 184.25C249.383 186.583 249.112 189.438 249.112 192.812V229.438C249.112 232.812 249.383 235.688 249.925 238.062C250.508 240.396 252.008 241.562 254.425 241.562ZM283.15 257.938V239.312H305.525V257.938H283.15Z" fill="black"/>
</svg>
